<svg xmlns:xlink="http://www.w3.org/1999/xlink" width="2.038ex" height="4.676ex" style="vertical-align: -1.838ex;" viewBox="0 -1221.9 877.5 2013.3" role="img" focusable="false" xmlns="http://www.w3.org/2000/svg">
<defs>
<path stroke-width="1" id="E1-MJMATHI-3C4" d="M39 284Q18 284 18 294Q18 301 45 338T99 398Q134 425 164 429Q170 431 332 431Q492 431 497 429Q517 424 517 402Q517 388 508 376T485 360Q479 358 389 358T299 356Q298 355 283 274T251 109T233 20Q228 5 215 -4T186 -13Q153 -13 153 20V30L203 192Q214 228 227 272T248 336L254 357Q254 358 208 358Q206 358 197 358T183 359Q105 359 61 295Q56 287 53 286T39 284Z"></path>
<path stroke-width="1" id="E1-MJMAIN-38" d="M70 417T70 494T124 618T248 666Q319 666 374 624T429 515Q429 485 418 459T392 417T361 389T335 371T324 363L338 354Q352 344 366 334T382 323Q457 264 457 174Q457 95 399 37T249 -22Q159 -22 101 29T43 155Q43 263 172 335L154 348Q133 361 127 368Q70 417 70 494ZM286 386L292 390Q298 394 301 396T311 403T323 413T334 425T345 438T355 454T364 471T369 491T371 513Q371 556 342 586T275 624Q268 625 242 625Q201 625 165 599T128 534Q128 511 141 492T167 463T217 431Q224 426 228 424L286 386ZM250 21Q308 21 350 55T392 137Q392 154 387 169T375 194T353 216T330 234T301 253T274 270Q260 279 244 289T218 306L210 311Q204 311 181 294T133 239T107 157Q107 98 150 60T250 21Z"></path>
</defs>
<g stroke="currentColor" fill="currentColor" stroke-width="0" transform="matrix(1 0 0 -1 0 0)">
<g transform="translate(120,0)">
<rect stroke="none" width="637" height="60" x="0" y="220"></rect>
 <use xlink:href="#E1-MJMATHI-3C4" x="60" y="676"></use>
 <use xlink:href="#E1-MJMAIN-38" x="68" y="-687"></use>
</g>
</g>
</svg>
